<svg width="14" height="12" viewBox="0 0 14 12" fill="none" xmlns="http://www.w3.org/2000/svg">
<path d="M13.7402 4.22266C13.7858 4.17708 13.8405 4.17025 13.9043 4.20215C13.9681 4.23405 14 4.2819 14 4.3457V9.9375C14 10.3021 13.8724 10.612 13.6172 10.8672C13.362 11.1224 13.0521 11.25 12.6875 11.25H1.3125C0.947917 11.25 0.638021 11.1224 0.382812 10.8672C0.127604 10.612 0 10.3021 0 9.9375V4.3457C0 4.2819 0.0296224 4.23405 0.0888672 4.20215C0.148112 4.17025 0.205078 4.17708 0.259766 4.22266C0.569661 4.45964 1.0026 4.7832 1.55859 5.19336C2.11458 5.60352 3.08984 6.31445 4.48438 7.32617C4.76693 7.53581 5.13607 7.80697 5.5918 8.13965C6.04753 8.47233 6.51693 8.63411 7 8.625C7.49219 8.63411 7.96615 8.47005 8.42188 8.13281C8.8776 7.79557 9.24675 7.52669 9.5293 7.32617C10.9238 6.31445 11.8968 5.60352 12.4482 5.19336C12.9997 4.7832 13.4303 4.45964 13.7402 4.22266ZM7 7.75C6.68099 7.75911 6.32324 7.61328 5.92676 7.3125C5.53027 7.01172 5.2181 6.7793 4.99023 6.61523C3.17643 5.30273 2.03711 4.47103 1.57227 4.12012C1.10742 3.76921 0.665365 3.42969 0.246094 3.10156C0.173177 3.03776 0.113932 2.96029 0.0683594 2.86914C0.0227865 2.778 0 2.68229 0 2.58203V2.0625C0 1.69792 0.127604 1.38802 0.382812 1.13281C0.638021 0.877604 0.947917 0.75 1.3125 0.75H12.6875C13.0521 0.75 13.362 0.877604 13.6172 1.13281C13.8724 1.38802 14 1.69792 14 2.0625V2.58203C14 2.68229 13.9772 2.778 13.9316 2.86914C13.8861 2.96029 13.8268 3.03776 13.7539 3.10156C13.3346 3.42969 12.8926 3.76921 12.4277 4.12012C11.9629 4.47103 10.8236 5.30273 9.00977 6.61523C8.7819 6.7793 8.46973 7.01172 8.07324 7.3125C7.67676 7.61328 7.31901 7.75911 7 7.75Z" fill="#FCB900"/>
</svg>
