<svg width="15" height="15" viewBox="0 0 15 15" fill="none" xmlns="http://www.w3.org/2000/svg">
<g clip-path="url(#clip0_19_34)">
<path d="M13.9224 7.75C13.9224 8.59766 13.7765 9.39974 13.4849 10.1562C13.1932 10.9128 12.7899 11.5872 12.2749 12.1797C11.7599 12.7721 11.1561 13.2689 10.4634 13.6699C9.76156 14.0618 9.0096 14.3216 8.20752 14.4492V9.70508H9.77979L10.0806 7.75H8.20752V6.47852C8.20752 6.20508 8.28499 5.95898 8.43994 5.74023C8.59489 5.52148 8.882 5.41211 9.30127 5.41211H10.1626V3.74414C10.1626 3.74414 10.0031 3.72363 9.68408 3.68262C9.36507 3.6416 9.01872 3.62109 8.64502 3.62109C7.87028 3.62109 7.24821 3.84668 6.77881 4.29785C6.30941 4.74902 6.07471 5.403 6.07471 6.25977V7.75H4.35205V9.70508H6.07471V14.4492C5.27262 14.3216 4.52067 14.0618 3.81885 13.6699C3.12614 13.2689 2.5223 12.7721 2.00732 12.1797C1.49235 11.5872 1.08903 10.9128 0.797363 10.1562C0.505697 9.39974 0.359863 8.59766 0.359863 7.75C0.359863 6.8112 0.537598 5.93164 0.893066 5.11133C1.24854 4.29102 1.73389 3.57324 2.34912 2.95801C2.96436 2.34277 3.68213 1.85742 4.50244 1.50195C5.32275 1.14648 6.20231 0.96875 7.14111 0.96875C8.07992 0.96875 8.95947 1.14648 9.77979 1.50195C10.6001 1.85742 11.3179 2.34277 11.9331 2.95801C12.5483 3.57324 13.0337 4.29102 13.3892 5.11133C13.7446 5.93164 13.9224 6.8112 13.9224 7.75Z" fill="#002756"/>
</g>
<defs>
<clipPath id="clip0_19_34">
<rect width="14" height="14" fill="white" transform="matrix(1 0 0 -1 0.359863 14.75)"/>
</clipPath>
</defs>
</svg>
