<svg width="48" height="50" viewBox="0 0 48 50" fill="none" xmlns="http://www.w3.org/2000/svg">
<path d="M13.8719 2.29298C8.92812 3.56967 4.51108 7.23676 2.14462 11.765C-0.566314 16.9521 -0.716921 23.429 1.7484 28.7388C6.29906 38.5414 18.3306 42.7878 28.5673 37.2477C30.9091 41.0894 33.8347 44.7217 36.7202 47.9092C38.1444 49.4832 40.7186 50.5359 42.7715 49.7126C44.5232 49.3264 45.7721 47.8072 45.7721 45.9899C45.7721 45.0708 45.4446 44.1826 44.8514 43.4891C41.5125 39.597 38.2929 35.6042 35.1971 31.5162C36.6584 29.5374 37.7235 27.2899 38.2371 24.8763C42.997 10.4605 28.3433 -3.35517 13.8719 2.29298ZM43.9717 44.2436C45.528 46.0602 44.0891 48.8522 41.7165 48.6406C41.3336 48.6076 40.9625 48.4915 40.6291 48.3005C40.2956 48.1095 40.0078 47.8481 39.7856 47.5346C36.9475 43.5224 33.9899 39.5961 30.9168 35.761C32.2261 34.8061 33.4156 33.6971 34.4595 32.4577C37.5126 36.4799 40.6847 40.4103 43.9717 44.2436ZM37.7451 22.0611C36.5904 29.1791 30.5862 35.1833 23.4691 36.3379C16.0777 37.5397 8.02602 33.3953 4.92815 26.282C0.898052 16.4694 5.84183 5.04407 16.9088 2.56794C28.4113 -0.00628805 39.7099 9.94537 37.7451 22.0611Z" fill="#002756"/>
<path d="M40.8618 45.3783C40.9555 45.4403 41.0653 45.4733 41.1777 45.4733C41.7523 45.4733 41.9763 44.7233 41.4951 44.409C41.0634 44.1252 40.733 43.7117 40.5513 43.2281C40.4977 43.0841 40.3891 42.9672 40.2494 42.9033C40.1097 42.8393 39.9504 42.8335 39.8064 42.8871C39.6624 42.9406 39.5455 43.0492 39.4816 43.1889C39.4176 43.3286 39.4118 43.488 39.4654 43.632C39.7344 44.3472 40.2233 44.9586 40.8618 45.3783ZM23.338 5.97094C23.2655 5.94438 23.1884 5.93259 23.1113 5.93627C23.0341 5.93994 22.9585 5.95901 22.8888 5.99234C22.8192 6.02567 22.7569 6.0726 22.7056 6.13036C22.6543 6.18812 22.6151 6.25555 22.5903 6.32868C22.5655 6.40181 22.5556 6.47917 22.5611 6.5562C22.5666 6.63324 22.5874 6.70839 22.6224 6.77725C22.6574 6.8461 22.7058 6.90726 22.7648 6.95714C22.8237 7.00701 22.8921 7.04459 22.9658 7.06767C28.0548 8.79386 31.8833 13.9446 32.0686 19.3155C32.074 19.4656 32.1374 19.6077 32.2454 19.712C32.3535 19.8163 32.4977 19.8746 32.6479 19.8747H32.668C32.8215 19.869 32.9665 19.8028 33.0713 19.6905C33.1761 19.5782 33.2321 19.4289 33.2271 19.2753C33.0209 13.3476 28.9553 7.87554 23.338 5.97094ZM32.2347 21.1282L32.1412 21.2217C32.0857 21.2747 32.0412 21.3383 32.0105 21.4088C31.9797 21.4792 31.9633 21.555 31.9621 21.6318C31.961 21.7087 31.9751 21.785 32.0037 21.8563C32.0324 21.9276 32.0749 21.9925 32.1288 22.0472C32.1828 22.102 32.2471 22.1454 32.318 22.175C32.3889 22.2046 32.465 22.2199 32.5418 22.2198C32.6187 22.2197 32.6947 22.2044 32.7656 22.1746C32.8364 22.1449 32.9006 22.1013 32.9545 22.0465L33.1036 21.8975L32.6942 21.4881L32.2347 21.1282ZM38.6166 0.0316089C38.5446 0.00679345 38.4685 -0.00357813 38.3925 0.00108823C38.3165 0.00575458 38.2422 0.0253671 38.1738 0.0588022C38.1055 0.0922372 38.0444 0.138837 37.994 0.195932C37.9437 0.253026 37.9051 0.319493 37.8805 0.391522L36.1149 5.54538C36.0756 5.68794 36.0921 5.84015 36.1612 5.97095C36.2302 6.10174 36.3465 6.20128 36.4864 6.24926C36.6263 6.29724 36.7792 6.29004 36.914 6.22914C37.0488 6.16823 37.1552 6.05821 37.2117 5.92151L38.9765 0.767653C39.0262 0.622314 39.0162 0.4632 38.9487 0.325214C38.8812 0.187228 38.7618 0.081639 38.6166 0.0316089ZM39.0637 8.51427C39.1472 8.51452 39.2297 8.4966 39.3055 8.46175C40.949 7.70602 42.519 6.79952 43.9952 5.75391C44.1206 5.66511 44.2057 5.53011 44.2316 5.37861C44.2575 5.2271 44.2222 5.0715 44.1334 4.94604C44.0446 4.82057 43.9096 4.73552 43.7581 4.7096C43.6066 4.68367 43.451 4.71899 43.3255 4.80779C41.9079 5.81226 40.4 6.68283 38.8212 7.40827C38.2597 7.66701 38.4428 8.51427 39.0637 8.51427ZM46.7903 12.2918C44.6216 11.6642 42.3561 11.4401 40.1064 11.6307C40.0306 11.6369 39.9567 11.658 39.8891 11.6929C39.8215 11.7277 39.7614 11.7756 39.7123 11.8337C39.6632 11.8919 39.6261 11.9591 39.6031 12.0316C39.58 12.1041 39.5716 12.1805 39.5781 12.2563C39.6044 12.5753 39.8871 12.8201 40.2037 12.7846C43.8114 12.4803 46.3972 13.4272 46.6296 13.4272C46.7689 13.4268 46.9034 13.3762 47.0085 13.2847C47.1136 13.1933 47.1821 13.067 47.2016 12.9291C47.2212 12.7911 47.1903 12.6508 47.1148 12.5337C47.0392 12.4167 46.924 12.3308 46.7903 12.2918Z" fill="#002756"/>
</svg>
