<svg width="15" height="15" viewBox="0 0 15 15" fill="none" xmlns="http://www.w3.org/2000/svg">
<g clip-path="url(#clip0_19_40)">
<path d="M6.48486 4.60547C6.92236 4.60547 7.33252 4.6875 7.71533 4.85156C8.09814 5.01562 8.43083 5.23893 8.71338 5.52148C8.99593 5.80404 9.21924 6.13672 9.3833 6.51953C9.54736 6.90234 9.62939 7.3125 9.62939 7.75C9.62939 8.17839 9.54736 8.58398 9.3833 8.9668C9.21924 9.34961 8.99593 9.68457 8.71338 9.97168C8.43083 10.2588 8.09814 10.4844 7.71533 10.6484C7.33252 10.8125 6.92236 10.8945 6.48486 10.8945C6.05648 10.8945 5.65088 10.8125 5.26807 10.6484C4.88525 10.4844 4.55029 10.2588 4.26318 9.97168C3.97607 9.68457 3.75049 9.34961 3.58643 8.9668C3.42236 8.58398 3.34033 8.17839 3.34033 7.75C3.34033 7.3125 3.42236 6.90234 3.58643 6.51953C3.75049 6.13672 3.97607 5.80404 4.26318 5.52148C4.55029 5.23893 4.88525 5.01562 5.26807 4.85156C5.65088 4.6875 6.05648 4.60547 6.48486 4.60547ZM6.48486 9.78711C7.04997 9.78711 7.53304 9.58887 7.93408 9.19238C8.33512 8.7959 8.53564 8.3151 8.53564 7.75C8.53564 7.1849 8.33512 6.70182 7.93408 6.30078C7.53304 5.89974 7.04997 5.69922 6.48486 5.69922C5.91976 5.69922 5.43896 5.89974 5.04248 6.30078C4.646 6.70182 4.44775 7.1849 4.44775 7.75C4.44775 8.3151 4.64827 8.7959 5.04932 9.19238C5.45036 9.58887 5.92887 9.78711 6.48486 9.78711ZM10.4907 4.48242C10.4907 4.68294 10.4201 4.85384 10.2788 4.99512C10.1375 5.13639 9.96208 5.20703 9.75244 5.20703C9.55192 5.20703 9.38102 5.13639 9.23975 4.99512C9.09847 4.85384 9.02783 4.68294 9.02783 4.48242C9.02783 4.27279 9.09847 4.09733 9.23975 3.95605C9.38102 3.81478 9.55192 3.74414 9.75244 3.74414C9.96208 3.74414 10.1375 3.81478 10.2788 3.95605C10.4201 4.09733 10.4907 4.27279 10.4907 4.48242ZM12.5688 5.2207C12.5871 5.47591 12.6007 5.83594 12.6099 6.30078C12.6099 6.75651 12.6099 7.2373 12.6099 7.74316C12.6099 8.24902 12.6099 8.73438 12.6099 9.19922C12.6007 9.66406 12.5871 10.0241 12.5688 10.2793C12.5506 10.7624 12.4709 11.2204 12.3296 11.6533C12.1883 12.0863 11.9399 12.4805 11.5845 12.8359C11.229 13.2005 10.8348 13.4512 10.4019 13.5879C9.96891 13.7246 9.50635 13.8066 9.01416 13.834C8.75895 13.8431 8.39893 13.8522 7.93408 13.8613C7.47835 13.8704 6.99756 13.875 6.4917 13.875C5.98584 13.875 5.50049 13.8704 5.03564 13.8613C4.5708 13.8522 4.21077 13.8431 3.95557 13.834C3.46338 13.8066 3.00309 13.7246 2.57471 13.5879C2.14632 13.4512 1.74984 13.2005 1.38525 12.8359C1.02979 12.4805 0.783691 12.0863 0.646973 11.6533C0.510254 11.2204 0.428223 10.7624 0.400879 10.2793C0.38265 10.0241 0.373535 9.66406 0.373535 9.19922C0.364421 8.73438 0.359863 8.24902 0.359863 7.74316C0.359863 7.2373 0.364421 6.75195 0.373535 6.28711C0.373535 5.83138 0.38265 5.47591 0.400879 5.2207C0.428223 4.72852 0.510254 4.26595 0.646973 3.83301C0.783691 3.40007 1.02979 3.00586 1.38525 2.65039C1.74984 2.29492 2.1486 2.04655 2.58154 1.90527C3.01449 1.764 3.47249 1.68425 3.95557 1.66602C4.21077 1.64779 4.5708 1.63411 5.03564 1.625C5.50049 1.625 5.98584 1.625 6.4917 1.625C6.99756 1.625 7.47835 1.625 7.93408 1.625C8.39893 1.63411 8.75895 1.64779 9.01416 1.66602C9.50635 1.69336 9.96891 1.77539 10.4019 1.91211C10.8348 2.04883 11.229 2.29492 11.5845 2.65039C11.9399 3.01497 12.1883 3.41146 12.3296 3.83984C12.4709 4.26823 12.5506 4.72852 12.5688 5.2207ZM11.27 11.3594C11.3429 11.1589 11.3976 10.8991 11.4341 10.5801C11.4705 10.2611 11.4956 9.92839 11.5093 9.58203C11.5229 9.23568 11.5252 8.89844 11.5161 8.57031C11.5161 8.24219 11.5161 7.96875 11.5161 7.75C11.5161 7.52214 11.5161 7.24414 11.5161 6.91602C11.5252 6.58789 11.5229 6.25065 11.5093 5.9043C11.4956 5.55794 11.4705 5.22982 11.4341 4.91992C11.3976 4.60091 11.3429 4.34115 11.27 4.14062C11.1606 3.86719 11.0057 3.63021 10.8052 3.42969C10.6047 3.22917 10.3677 3.07422 10.0942 2.96484C9.89372 2.89193 9.63395 2.83724 9.31494 2.80078C9.00505 2.76432 8.67692 2.73926 8.33057 2.72559C7.98421 2.71191 7.64697 2.70964 7.31885 2.71875C6.99072 2.71875 6.71273 2.71875 6.48486 2.71875C6.26611 2.71875 5.99268 2.71875 5.66455 2.71875C5.33643 2.70964 4.99919 2.71191 4.65283 2.72559C4.30648 2.73926 3.9738 2.76432 3.65479 2.80078C3.33577 2.83724 3.07601 2.89193 2.87549 2.96484C2.60205 3.07422 2.36507 3.22917 2.16455 3.42969C1.96403 3.63021 1.81364 3.86719 1.71338 4.14062C1.63135 4.34115 1.5721 4.60091 1.53564 4.91992C1.49919 5.22982 1.4764 5.55794 1.46729 5.9043C1.45817 6.25065 1.45361 6.58789 1.45361 6.91602C1.46273 7.24414 1.46729 7.52214 1.46729 7.75C1.46729 7.96875 1.46273 8.24219 1.45361 8.57031C1.45361 8.89844 1.45817 9.23568 1.46729 9.58203C1.4764 9.92839 1.49919 10.2611 1.53564 10.5801C1.5721 10.8991 1.63135 11.1589 1.71338 11.3594C1.82275 11.6328 1.9777 11.8675 2.17822 12.0635C2.37874 12.2594 2.61117 12.4121 2.87549 12.5215C3.07601 12.6035 3.33577 12.6628 3.65479 12.6992C3.9738 12.7357 4.30648 12.7585 4.65283 12.7676C4.99919 12.7767 5.33643 12.7812 5.66455 12.7812C5.99268 12.7721 6.26611 12.7676 6.48486 12.7676C6.71273 12.7676 6.99072 12.7721 7.31885 12.7812C7.64697 12.7812 7.98421 12.7767 8.33057 12.7676C8.67692 12.7585 9.00505 12.7357 9.31494 12.6992C9.63395 12.6628 9.89372 12.6035 10.0942 12.5215C10.3677 12.4121 10.6047 12.2572 10.8052 12.0566C11.0057 11.8561 11.1606 11.6237 11.27 11.3594Z" fill="#002756"/>
</g>
<defs>
<clipPath id="clip0_19_40">
<rect width="14" height="14" fill="white" transform="matrix(1 0 0 -1 0.359863 14.75)"/>
</clipPath>
</defs>
</svg>
