<svg xmlns="http://www.w3.org/2000/svg" xmlns:xlink="http://www.w3.org/1999/xlink" width="1000" viewBox="0 0 750 749.999995" height="1000" preserveAspectRatio="xMidYMid meet"><path fill="#3c86cb" d="M 631.953125 243.398438 C 631.613281 242.78125 631.214844 242.203125 630.761719 241.664062 C 630.308594 241.125 629.804688 240.636719 629.253906 240.195312 C 628.707031 239.753906 628.117188 239.367188 627.492188 239.042969 C 626.871094 238.714844 626.21875 238.449219 625.542969 238.25 C 624.867188 238.050781 624.179688 237.917969 623.476562 237.851562 C 622.777344 237.785156 622.074219 237.785156 621.371094 237.855469 C 620.671875 237.925781 619.984375 238.0625 619.308594 238.265625 C 618.632812 238.472656 617.984375 238.738281 617.363281 239.070312 C 616.738281 239.398438 616.15625 239.785156 615.605469 240.230469 C 615.058594 240.675781 614.5625 241.167969 614.109375 241.710938 C 613.660156 242.25 613.261719 242.832031 612.925781 243.449219 C 612.585938 244.066406 612.3125 244.714844 612.097656 245.386719 C 611.886719 246.058594 611.738281 246.742188 611.660156 247.445312 C 611.582031 248.144531 611.570312 248.847656 611.628906 249.546875 C 611.6875 250.25 611.808594 250.941406 612.003906 251.621094 C 612.195312 252.296875 612.449219 252.953125 612.769531 253.582031 C 712.664062 437.21875 572.304688 670.144531 362.898438 667.488281 C 358.277344 667.484375 353.660156 667.363281 349.046875 667.132812 C 344.433594 666.902344 339.828125 666.558594 335.230469 666.101562 C 330.632812 665.640625 326.050781 665.074219 321.480469 664.390625 C 316.910156 663.707031 312.363281 662.914062 307.832031 662.011719 C 303.300781 661.105469 298.796875 660.089844 294.316406 658.964844 C 289.835938 657.835938 285.382812 656.601562 280.964844 655.257812 C 276.542969 653.914062 272.160156 652.460938 267.8125 650.902344 C 263.464844 649.34375 259.15625 647.679688 254.886719 645.910156 C 250.621094 644.136719 246.398438 642.265625 242.222656 640.289062 C 238.050781 638.308594 233.925781 636.230469 229.851562 634.050781 C 225.777344 631.871094 221.761719 629.59375 217.796875 627.21875 C 213.835938 624.84375 209.9375 622.371094 206.09375 619.800781 C 202.253906 617.234375 198.480469 614.574219 194.769531 611.820312 C 191.058594 609.070312 187.417969 606.226562 183.847656 603.296875 C 180.277344 600.363281 176.78125 597.347656 173.359375 594.246094 C 169.933594 591.140625 166.589844 587.957031 163.324219 584.691406 C 160.058594 581.421875 156.871094 578.078125 153.769531 574.65625 C 150.667969 571.234375 147.648438 567.734375 144.71875 564.164062 C 141.789062 560.59375 138.945312 556.953125 136.191406 553.242188 C 133.441406 549.535156 130.78125 545.757812 128.210938 541.917969 C 125.644531 538.078125 123.171875 534.175781 120.796875 530.214844 C 118.417969 526.253906 116.140625 522.234375 113.960938 518.164062 C 111.78125 514.089844 109.703125 509.964844 107.726562 505.789062 C 105.75 501.613281 103.875 497.394531 102.105469 493.125 C 100.335938 488.859375 98.671875 484.550781 97.109375 480.203125 C 95.550781 475.851562 94.101562 471.46875 92.757812 467.046875 C 91.410156 462.628906 90.175781 458.179688 89.050781 453.699219 C 87.925781 449.21875 86.910156 444.710938 86.003906 440.183594 C 85.097656 435.652344 84.304688 431.101562 83.625 426.53125 C 82.941406 421.964844 82.371094 417.378906 81.914062 412.785156 C 81.457031 408.1875 81.113281 403.582031 80.882812 398.964844 C 80.648438 394.351562 80.53125 389.734375 80.527344 385.117188 C 77.910156 175.703125 310.773438 35.34375 494.4375 135.253906 C 495.070312 135.585938 495.726562 135.855469 496.410156 136.0625 C 497.089844 136.265625 497.789062 136.402344 498.5 136.46875 C 499.207031 136.539062 499.917969 136.535156 500.628906 136.460938 C 501.335938 136.390625 502.03125 136.25 502.714844 136.039062 C 503.394531 135.832031 504.050781 135.558594 504.679688 135.21875 C 505.308594 134.882812 505.894531 134.484375 506.445312 134.03125 C 506.996094 133.578125 507.496094 133.074219 507.945312 132.519531 C 508.398438 131.96875 508.789062 131.375 509.125 130.746094 C 509.457031 130.117188 509.726562 129.460938 509.933594 128.777344 C 510.136719 128.09375 510.273438 127.398438 510.339844 126.6875 C 510.410156 125.976562 510.40625 125.265625 510.335938 124.558594 C 510.261719 123.847656 510.121094 123.152344 509.914062 122.472656 C 509.703125 121.789062 509.429688 121.132812 509.089844 120.507812 C 508.753906 119.878906 508.355469 119.289062 507.902344 118.738281 C 507.449219 118.191406 506.945312 117.691406 506.394531 117.238281 C 505.839844 116.789062 505.25 116.394531 504.617188 116.0625 C 499.535156 113.382812 494.378906 110.851562 489.152344 108.46875 C 483.925781 106.082031 478.636719 103.847656 473.285156 101.761719 C 467.929688 99.675781 462.523438 97.742188 457.058594 95.964844 C 451.597656 94.1875 446.089844 92.5625 440.535156 91.097656 C 434.980469 89.628906 429.386719 88.320312 423.757812 87.171875 C 418.128906 86.023438 412.472656 85.03125 406.789062 84.203125 C 401.101562 83.375 395.398438 82.707031 389.675781 82.199219 C 383.953125 81.695312 378.21875 81.351562 372.476562 81.171875 C 366.734375 80.988281 360.992188 80.972656 355.25 81.117188 C 349.507812 81.261719 343.773438 81.566406 338.046875 82.039062 C 332.320312 82.507812 326.613281 83.136719 320.921875 83.929688 C 315.230469 84.722656 309.566406 85.679688 303.933594 86.792969 C 298.296875 87.90625 292.695312 89.179688 287.132812 90.609375 C 281.566406 92.042969 276.050781 93.628906 270.574219 95.375 C 265.101562 97.117188 259.679688 99.015625 254.316406 101.066406 C 248.949219 103.117188 243.644531 105.320312 238.402344 107.671875 C 233.160156 110.023438 227.992188 112.523438 222.890625 115.167969 C 217.789062 117.8125 212.769531 120.601562 207.828125 123.53125 C 202.886719 126.460938 198.03125 129.527344 193.261719 132.734375 C 188.492188 135.9375 183.820312 139.273438 179.242188 142.746094 C 174.664062 146.214844 170.183594 149.8125 165.808594 153.535156 C 161.433594 157.257812 157.167969 161.101562 153.011719 165.066406 C 148.855469 169.03125 144.8125 173.113281 140.886719 177.308594 C 136.960938 181.5 133.15625 185.804688 129.472656 190.214844 C 125.792969 194.625 122.238281 199.136719 118.8125 203.746094 C 115.382812 208.359375 112.089844 213.0625 108.929688 217.859375 C 105.773438 222.660156 102.75 227.542969 99.867188 232.511719 C 96.984375 237.480469 94.242188 242.527344 91.648438 247.652344 C 89.050781 252.777344 86.601562 257.972656 84.296875 263.234375 C 81.996094 268.5 79.84375 273.824219 77.84375 279.207031 C 75.839844 284.59375 73.996094 290.03125 72.300781 295.523438 C 70.609375 301.011719 69.074219 306.546875 67.695312 312.121094 C 66.316406 317.699219 65.09375 323.3125 64.035156 328.957031 C 62.972656 334.605469 62.074219 340.277344 61.332031 345.972656 C 60.59375 351.671875 60.015625 357.386719 59.601562 363.113281 C 59.183594 368.84375 58.933594 374.582031 58.839844 380.328125 C 58.75 386.070312 58.824219 391.8125 59.058594 397.554688 C 59.292969 403.292969 59.691406 409.023438 60.25 414.742188 C 60.808594 420.457031 61.53125 426.15625 62.414062 431.832031 C 63.296875 437.511719 64.339844 443.15625 65.542969 448.773438 C 66.746094 454.394531 68.105469 459.972656 69.625 465.511719 C 71.144531 471.054688 72.816406 476.546875 74.648438 481.992188 C 76.476562 487.4375 78.460938 492.828125 80.597656 498.160156 C 82.734375 503.496094 85.015625 508.765625 87.453125 513.96875 C 89.886719 519.171875 92.464844 524.300781 95.191406 529.359375 C 97.917969 534.417969 100.78125 539.394531 103.789062 544.289062 C 106.796875 549.183594 109.941406 553.992188 113.21875 558.707031 C 116.5 563.425781 119.910156 568.046875 123.453125 572.570312 C 126.992188 577.09375 130.660156 581.511719 134.453125 585.828125 C 138.242188 590.144531 142.15625 594.351562 146.183594 598.445312 C 150.214844 602.539062 154.359375 606.515625 158.613281 610.375 C 162.871094 614.234375 167.230469 617.96875 171.699219 621.582031 C 176.167969 625.195312 180.734375 628.679688 185.398438 632.03125 C 190.0625 635.382812 194.816406 638.601562 199.664062 641.6875 C 204.511719 644.769531 209.445312 647.714844 214.457031 650.519531 C 219.472656 653.324219 224.5625 655.984375 229.726562 658.5 C 234.890625 661.015625 240.125 663.382812 245.421875 665.605469 C 250.722656 667.824219 256.078125 669.890625 261.496094 671.804688 C 266.914062 673.722656 272.378906 675.484375 277.894531 677.089844 C 283.410156 678.695312 288.96875 680.144531 294.566406 681.433594 C 300.164062 682.726562 305.792969 683.855469 311.457031 684.828125 C 317.121094 685.800781 322.804688 686.613281 328.511719 687.261719 C 334.222656 687.910156 339.941406 688.398438 345.679688 688.722656 C 351.414062 689.050781 357.15625 689.210938 362.902344 689.210938 C 588.457031 692.023438 739.601562 441.214844 631.953125 243.398438 Z M 631.953125 243.398438 " fill-opacity="1" fill-rule="nonzero"></path><path fill="#3c86cb" d="M 362.902344 298.230469 C 372.371094 298.226562 381.582031 299.765625 390.535156 302.851562 C 391.210938 303.082031 391.898438 303.246094 392.605469 303.34375 C 393.3125 303.4375 394.019531 303.464844 394.734375 303.421875 C 395.445312 303.378906 396.144531 303.265625 396.835938 303.085938 C 397.523438 302.902344 398.1875 302.65625 398.832031 302.34375 C 399.472656 302.03125 400.074219 301.660156 400.644531 301.226562 C 401.210938 300.796875 401.730469 300.3125 402.203125 299.78125 C 402.675781 299.246094 403.089844 298.671875 403.449219 298.054688 C 403.808594 297.441406 404.105469 296.792969 404.339844 296.121094 C 409.109375 276.910156 375.285156 277.675781 362.902344 276.507812 C 218.839844 282.460938 218.84375 487.773438 362.902344 493.722656 C 364.679688 493.71875 366.453125 493.675781 368.230469 493.585938 C 370.003906 493.496094 371.773438 493.363281 373.542969 493.1875 C 375.3125 493.011719 377.074219 492.792969 378.832031 492.53125 C 380.589844 492.269531 382.339844 491.964844 384.082031 491.613281 C 385.824219 491.265625 387.554688 490.875 389.28125 490.441406 C 391.003906 490.011719 392.714844 489.535156 394.414062 489.019531 C 396.113281 488.5 397.800781 487.941406 399.472656 487.34375 C 401.144531 486.742188 402.804688 486.101562 404.445312 485.421875 C 406.085938 484.742188 407.710938 484.019531 409.316406 483.261719 C 410.921875 482.5 412.507812 481.699219 414.074219 480.863281 C 415.640625 480.023438 417.1875 479.148438 418.710938 478.234375 C 420.234375 477.320312 421.734375 476.367188 423.210938 475.382812 C 424.6875 474.394531 426.140625 473.371094 427.566406 472.3125 C 428.992188 471.253906 430.394531 470.160156 431.765625 469.03125 C 433.140625 467.90625 434.484375 466.746094 435.800781 465.550781 C 437.117188 464.359375 438.40625 463.132812 439.660156 461.875 C 440.917969 460.621094 442.144531 459.332031 443.335938 458.015625 C 444.53125 456.699219 445.691406 455.355469 446.816406 453.980469 C 447.945312 452.609375 449.039062 451.207031 450.097656 449.78125 C 451.15625 448.355469 452.179688 446.902344 453.167969 445.425781 C 454.152344 443.949219 455.105469 442.449219 456.019531 440.925781 C 456.933594 439.398438 457.808594 437.855469 458.648438 436.289062 C 459.484375 434.722656 460.285156 433.136719 461.046875 431.527344 C 461.804688 429.921875 462.527344 428.300781 463.207031 426.660156 C 463.886719 425.015625 464.527344 423.359375 465.128906 421.6875 C 465.726562 420.015625 466.285156 418.328125 466.804688 416.628906 C 467.320312 414.929688 467.796875 413.21875 468.226562 411.492188 C 468.660156 409.769531 469.050781 408.039062 469.398438 406.296875 C 469.746094 404.554688 470.054688 402.804688 470.316406 401.046875 C 470.578125 399.289062 470.796875 397.523438 470.972656 395.757812 C 471.148438 393.988281 471.28125 392.21875 471.371094 390.441406 C 471.460938 388.667969 471.503906 386.894531 471.507812 385.117188 C 470.398438 372.507812 471.132812 339.035156 452.003906 343.789062 C 451.328125 344.019531 450.683594 344.316406 450.066406 344.675781 C 449.453125 345.035156 448.875 345.449219 448.34375 345.921875 C 447.808594 346.394531 447.324219 346.914062 446.894531 347.484375 C 446.460938 348.050781 446.089844 348.65625 445.777344 349.296875 C 445.464844 349.9375 445.21875 350.601562 445.035156 351.292969 C 444.855469 351.980469 444.742188 352.683594 444.699219 353.394531 C 444.65625 354.105469 444.683594 354.816406 444.777344 355.523438 C 444.875 356.230469 445.039062 356.917969 445.273438 357.59375 C 448.316406 366.515625 449.820312 375.6875 449.785156 385.117188 C 445.429688 500.203125 280.371094 500.207031 276.015625 385.113281 C 276.019531 383.691406 276.054688 382.273438 276.125 380.851562 C 276.195312 379.433594 276.304688 378.015625 276.445312 376.601562 C 276.585938 375.1875 276.761719 373.777344 276.96875 372.371094 C 277.179688 370.964844 277.425781 369.566406 277.703125 368.171875 C 277.980469 366.777344 278.292969 365.390625 278.640625 364.011719 C 278.988281 362.632812 279.367188 361.265625 279.78125 359.90625 C 280.195312 358.542969 280.640625 357.195312 281.121094 355.859375 C 281.601562 354.519531 282.113281 353.195312 282.65625 351.882812 C 283.203125 350.566406 283.777344 349.269531 284.386719 347.984375 C 284.996094 346.699219 285.632812 345.429688 286.304688 344.175781 C 286.976562 342.925781 287.675781 341.6875 288.40625 340.46875 C 289.140625 339.25 289.898438 338.050781 290.691406 336.867188 C 291.480469 335.6875 292.296875 334.523438 293.144531 333.382812 C 293.992188 332.242188 294.867188 331.121094 295.769531 330.023438 C 296.671875 328.925781 297.597656 327.847656 298.554688 326.796875 C 299.507812 325.742188 300.488281 324.714844 301.492188 323.707031 C 302.5 322.703125 303.527344 321.722656 304.582031 320.769531 C 305.632812 319.8125 306.710938 318.886719 307.808594 317.984375 C 308.90625 317.082031 310.027344 316.207031 311.167969 315.359375 C 312.3125 314.511719 313.472656 313.695312 314.652344 312.902344 C 315.835938 312.113281 317.035156 311.355469 318.253906 310.621094 C 319.472656 309.890625 320.710938 309.191406 321.964844 308.519531 C 323.21875 307.847656 324.484375 307.210938 325.769531 306.601562 C 327.054688 305.992188 328.355469 305.417969 329.667969 304.871094 C 330.980469 304.328125 332.304688 303.8125 333.644531 303.335938 C 334.980469 302.855469 336.332031 302.410156 337.691406 301.996094 C 339.050781 301.582031 340.421875 301.199219 341.796875 300.855469 C 343.175781 300.507812 344.5625 300.195312 345.957031 299.917969 C 347.351562 299.636719 348.75 299.394531 350.15625 299.183594 C 351.5625 298.976562 352.972656 298.800781 354.386719 298.660156 C 355.800781 298.519531 357.21875 298.410156 358.640625 298.339844 C 360.058594 298.269531 361.480469 298.234375 362.902344 298.230469 Z M 362.902344 298.230469 " fill-opacity="1" fill-rule="nonzero"></path><path fill="#3c86cb" d="M 466.886719 219.328125 C 467.234375 218.703125 467.515625 218.050781 467.734375 217.375 C 467.949219 216.695312 468.101562 216 468.179688 215.292969 C 468.261719 214.582031 468.273438 213.875 468.214844 213.164062 C 468.15625 212.453125 468.027344 211.753906 467.832031 211.070312 C 467.632812 210.382812 467.371094 209.722656 467.046875 209.089844 C 466.71875 208.457031 466.335938 207.859375 465.890625 207.300781 C 465.445312 206.742188 464.953125 206.234375 464.40625 205.773438 C 463.863281 205.3125 463.28125 204.910156 462.65625 204.5625 C 455.054688 200.355469 447.214844 196.644531 439.144531 193.425781 C 431.070312 190.207031 422.828125 187.511719 414.414062 185.335938 C 406.003906 183.160156 397.484375 181.519531 388.867188 180.421875 C 380.246094 179.324219 371.589844 178.769531 362.902344 178.765625 C 89.1875 190.078125 89.191406 580.160156 362.902344 591.464844 C 367.367188 591.46875 371.824219 591.328125 376.277344 591.039062 C 380.734375 590.753906 385.171875 590.324219 389.597656 589.746094 C 394.023438 589.171875 398.425781 588.453125 402.808594 587.59375 C 407.1875 586.730469 411.535156 585.730469 415.847656 584.585938 C 420.164062 583.441406 424.433594 582.160156 428.667969 580.742188 C 432.898438 579.320312 437.078125 577.761719 441.207031 576.070312 C 445.339844 574.378906 449.410156 572.554688 453.421875 570.597656 C 457.433594 568.640625 461.375 566.558594 465.253906 564.34375 C 469.128906 562.132812 472.929688 559.796875 476.652344 557.335938 C 480.378906 554.878906 484.019531 552.300781 487.578125 549.605469 C 491.132812 546.910156 494.601562 544.101562 497.976562 541.179688 C 501.351562 538.261719 504.628906 535.234375 507.804688 532.097656 C 510.984375 528.964844 514.058594 525.734375 517.027344 522.398438 C 519.996094 519.066406 522.851562 515.640625 525.597656 512.121094 C 528.34375 508.605469 530.972656 505 533.484375 501.3125 C 535.996094 497.621094 538.386719 493.855469 540.65625 490.011719 C 542.921875 486.164062 545.0625 482.25 547.078125 478.269531 C 549.089844 474.285156 550.972656 470.242188 552.722656 466.136719 C 554.472656 462.03125 556.089844 457.871094 557.570312 453.660156 C 559.050781 449.449219 560.394531 445.195312 561.597656 440.898438 C 562.804688 436.601562 563.867188 432.269531 564.789062 427.902344 C 565.714844 423.535156 566.496094 419.144531 567.132812 414.726562 C 567.769531 410.308594 568.265625 405.875 568.617188 401.425781 C 568.964844 396.976562 569.171875 392.519531 569.234375 388.058594 C 569.292969 383.59375 569.210938 379.132812 568.980469 374.675781 C 568.753906 370.21875 568.378906 365.773438 567.863281 361.339844 C 567.34375 356.90625 566.683594 352.496094 565.882812 348.105469 C 565.078125 343.714844 564.132812 339.355469 563.046875 335.027344 C 561.960938 330.695312 560.734375 326.40625 559.367188 322.160156 C 558.003906 317.910156 556.5 313.707031 554.863281 309.554688 C 553.226562 305.40625 551.453125 301.308594 549.550781 297.273438 C 547.648438 293.234375 545.613281 289.265625 543.453125 285.359375 C 543.109375 284.734375 542.707031 284.148438 542.246094 283.601562 C 541.785156 283.054688 541.277344 282.554688 540.71875 282.109375 C 540.160156 281.664062 539.5625 281.273438 538.929688 280.945312 C 538.292969 280.617188 537.632812 280.355469 536.945312 280.15625 C 536.261719 279.957031 535.5625 279.828125 534.847656 279.769531 C 534.136719 279.707031 533.425781 279.71875 532.714844 279.796875 C 532.003906 279.878906 531.308594 280.027344 530.628906 280.246094 C 529.945312 280.464844 529.292969 280.746094 528.667969 281.09375 C 528.042969 281.4375 527.457031 281.84375 526.914062 282.304688 C 526.367188 282.765625 525.871094 283.277344 525.429688 283.839844 C 524.984375 284.398438 524.597656 284.996094 524.273438 285.632812 C 523.945312 286.269531 523.683594 286.929688 523.488281 287.617188 C 523.292969 288.304688 523.167969 289.003906 523.109375 289.71875 C 523.050781 290.429688 523.066406 291.140625 523.148438 291.851562 C 523.230469 292.5625 523.382812 293.257812 523.601562 293.9375 C 523.824219 294.617188 524.109375 295.269531 524.457031 295.890625 C 593.296875 415.28125 500.820312 572.136719 362.898438 569.742188 C 359.878906 569.738281 356.859375 569.664062 353.839844 569.511719 C 350.824219 569.359375 347.8125 569.136719 344.808594 568.835938 C 341.800781 568.535156 338.804688 568.164062 335.816406 567.71875 C 332.832031 567.273438 329.855469 566.753906 326.894531 566.160156 C 323.929688 565.570312 320.984375 564.90625 318.054688 564.171875 C 315.125 563.433594 312.214844 562.625 309.328125 561.746094 C 306.4375 560.867188 303.570312 559.917969 300.726562 558.898438 C 297.882812 557.878906 295.066406 556.792969 292.277344 555.632812 C 289.484375 554.476562 286.726562 553.253906 283.996094 551.960938 C 281.265625 550.667969 278.570312 549.308594 275.90625 547.882812 C 273.242188 546.457031 270.617188 544.96875 268.023438 543.414062 C 265.433594 541.859375 262.882812 540.242188 260.375 538.566406 C 257.863281 536.886719 255.394531 535.148438 252.96875 533.347656 C 250.542969 531.546875 248.160156 529.6875 245.828125 527.773438 C 243.492188 525.855469 241.207031 523.882812 238.96875 521.855469 C 236.730469 519.824219 234.542969 517.742188 232.40625 515.605469 C 230.269531 513.472656 228.1875 511.285156 226.160156 509.046875 C 224.132812 506.808594 222.160156 504.523438 220.242188 502.1875 C 218.324219 499.851562 216.46875 497.472656 214.667969 495.046875 C 212.867188 492.621094 211.128906 490.152344 209.449219 487.640625 C 207.769531 485.128906 206.152344 482.578125 204.601562 479.988281 C 203.046875 477.398438 201.558594 474.769531 200.132812 472.109375 C 198.707031 469.445312 197.347656 466.746094 196.054688 464.019531 C 194.761719 461.289062 193.539062 458.527344 192.378906 455.738281 C 191.222656 452.949219 190.132812 450.132812 189.113281 447.289062 C 188.09375 444.445312 187.144531 441.578125 186.265625 438.6875 C 185.386719 435.796875 184.582031 432.886719 183.84375 429.957031 C 183.109375 427.027344 182.445312 424.082031 181.851562 421.121094 C 181.261719 418.160156 180.742188 415.183594 180.296875 412.195312 C 179.851562 409.207031 179.476562 406.210938 179.179688 403.207031 C 178.878906 400.199219 178.65625 397.1875 178.503906 394.171875 C 178.351562 391.15625 178.273438 388.136719 178.269531 385.117188 C 175.90625 247.199219 332.71875 154.710938 452.125 223.5625 C 452.75 223.910156 453.402344 224.191406 454.078125 224.410156 C 454.757812 224.628906 455.453125 224.777344 456.160156 224.859375 C 456.871094 224.941406 457.582031 224.953125 458.292969 224.894531 C 459.003906 224.835938 459.699219 224.707031 460.386719 224.511719 C 461.070312 224.3125 461.730469 224.050781 462.367188 223.726562 C 463 223.398438 463.597656 223.011719 464.152344 222.566406 C 464.710938 222.121094 465.21875 221.628906 465.679688 221.082031 C 466.140625 220.539062 466.542969 219.953125 466.886719 219.328125 Z M 466.886719 219.328125 " fill-opacity="1" fill-rule="nonzero"></path><path fill="#3c86cb" d="M 647.011719 177.789062 L 567.949219 256.851562 C 566.933594 257.851562 565.769531 258.625 564.453125 259.167969 C 563.140625 259.714844 561.769531 259.992188 560.347656 260.003906 L 559.476562 260.003906 L 507.457031 255.984375 L 370.613281 392.828125 C 370.101562 393.316406 369.550781 393.75 368.953125 394.128906 C 368.359375 394.511719 367.734375 394.828125 367.078125 395.089844 C 366.421875 395.347656 365.746094 395.542969 365.050781 395.667969 C 364.355469 395.796875 363.65625 395.855469 362.953125 395.847656 C 362.246094 395.839844 361.546875 395.765625 360.855469 395.621094 C 360.164062 395.476562 359.492188 395.269531 358.84375 394.996094 C 358.191406 394.722656 357.574219 394.386719 356.988281 393.996094 C 356.402344 393.601562 355.859375 393.152344 355.359375 392.65625 C 354.863281 392.15625 354.414062 391.613281 354.023438 391.027344 C 353.628906 390.441406 353.292969 389.824219 353.019531 389.171875 C 352.746094 388.523438 352.539062 387.851562 352.394531 387.160156 C 352.25 386.46875 352.175781 385.769531 352.167969 385.0625 C 352.160156 384.359375 352.21875 383.65625 352.347656 382.964844 C 352.476562 382.269531 352.667969 381.59375 352.929688 380.9375 C 353.1875 380.28125 353.507812 379.65625 353.886719 379.0625 C 354.269531 378.464844 354.703125 377.914062 355.191406 377.402344 L 492.03125 240.5625 L 488.015625 188.539062 C 487.910156 186.96875 488.132812 185.441406 488.683594 183.964844 C 489.230469 182.488281 490.058594 181.191406 491.164062 180.066406 L 570.230469 101.003906 C 570.96875 100.28125 571.796875 99.675781 572.710938 99.1875 C 573.625 98.699219 574.585938 98.347656 575.597656 98.132812 C 576.613281 97.914062 577.632812 97.84375 578.667969 97.917969 C 579.699219 97.992188 580.703125 98.210938 581.671875 98.566406 C 582.644531 98.925781 583.546875 99.410156 584.382812 100.023438 C 585.214844 100.636719 585.945312 101.355469 586.578125 102.175781 C 587.207031 102.996094 587.710938 103.890625 588.089844 104.851562 C 588.46875 105.816406 588.707031 106.816406 588.800781 107.84375 L 592.386719 155.632812 L 640.171875 159.214844 C 641.203125 159.3125 642.199219 159.546875 643.164062 159.925781 C 644.128906 160.304688 645.019531 160.808594 645.839844 161.4375 C 646.660156 162.070312 647.378906 162.800781 647.992188 163.636719 C 648.605469 164.46875 649.089844 165.371094 649.449219 166.34375 C 649.808594 167.316406 650.023438 168.316406 650.097656 169.351562 C 650.171875 170.382812 650.101562 171.40625 649.886719 172.417969 C 649.667969 173.429688 649.316406 174.394531 648.828125 175.304688 C 648.339844 176.21875 647.734375 177.046875 647.011719 177.789062 Z M 647.011719 177.789062 " fill-opacity="1" fill-rule="nonzero"></path></svg>