<svg width="11" height="15" viewBox="0 0 11 15" fill="none" xmlns="http://www.w3.org/2000/svg">
<g clip-path="url(#clip0_19_37)">
<path d="M5.68799 0.927734C6.33512 0.927734 6.95492 1.03255 7.54736 1.24219C8.13981 1.46094 8.66162 1.76628 9.11279 2.1582C9.56396 2.55013 9.92627 3.01953 10.1997 3.56641C10.4731 4.1224 10.6099 4.73763 10.6099 5.41211C10.6099 6.05013 10.5278 6.68815 10.3638 7.32617C10.1997 7.97331 9.9445 8.55208 9.59814 9.0625C9.25179 9.57292 8.81429 9.99219 8.28564 10.3203C7.757 10.6393 7.12809 10.7988 6.39893 10.7988C6.05257 10.7988 5.69255 10.7145 5.31885 10.5459C4.94515 10.3773 4.67627 10.1335 4.51221 9.81445C4.1932 11.0449 3.9585 11.904 3.80811 12.3916C3.65771 12.8792 3.24072 13.5924 2.55713 14.5312C2.48421 14.5586 2.44548 14.5723 2.44092 14.5723C2.43636 14.5723 2.4113 14.5449 2.36572 14.4902C2.33838 14.235 2.31104 13.9798 2.28369 13.7246C2.25635 13.4694 2.24268 13.2142 2.24268 12.959C2.24268 12.5397 2.28369 12.0794 2.36572 11.5781C2.44775 11.0859 2.55029 10.5846 2.67334 10.0742C2.79639 9.5638 2.92171 9.06706 3.04932 8.58398C3.18604 8.0918 3.29997 7.64062 3.39111 7.23047C3.29085 7.02083 3.22249 6.79525 3.18604 6.55371C3.14958 6.31217 3.13135 6.07747 3.13135 5.84961C3.13135 5.30273 3.26351 4.87435 3.52783 4.56445C3.79216 4.25456 4.0861 4.06543 4.40967 3.99707C4.73324 3.92871 5.02718 3.99023 5.2915 4.18164C5.56494 4.37305 5.70166 4.69206 5.70166 5.13867C5.70166 5.67643 5.58089 6.19824 5.33936 6.7041C5.09782 7.20996 4.97705 7.72266 4.97705 8.24219C4.97705 8.59766 5.10238 8.88704 5.35303 9.11035C5.60368 9.33366 5.89762 9.44531 6.23486 9.44531C6.70882 9.44531 7.10531 9.29492 7.42432 8.99414C7.73421 8.69336 7.98486 8.32878 8.17627 7.90039C8.36768 7.47201 8.50439 7.01628 8.58643 6.5332C8.66846 6.05013 8.70947 5.6263 8.70947 5.26172C8.70947 4.77865 8.62744 4.35026 8.46338 3.97656C8.29932 3.60286 8.07373 3.28841 7.78662 3.0332C7.49951 2.778 7.15544 2.58659 6.75439 2.45898C6.36247 2.33138 5.93408 2.26758 5.46924 2.26758C4.92236 2.26758 4.4165 2.35872 3.95166 2.54102C3.48682 2.72331 3.08122 2.98079 2.73486 3.31348C2.38851 3.64616 2.11963 4.04492 1.92822 4.50977C1.7277 4.9655 1.62744 5.47135 1.62744 6.02734C1.62744 6.55599 1.73454 6.96387 1.94873 7.25098C2.16292 7.53809 2.27002 7.74544 2.27002 7.87305C2.27002 7.98242 2.23356 8.17155 2.16064 8.44043C2.08773 8.70931 1.98291 8.84375 1.84619 8.84375C1.51807 8.84375 1.14665 8.58171 0.731934 8.05762C0.31722 7.53353 0.109863 6.78841 0.109863 5.82227C0.109863 5.06575 0.269368 4.38672 0.588379 3.78516C0.907389 3.17448 1.32666 2.6595 1.84619 2.24023C2.36572 1.82096 2.96273 1.4974 3.63721 1.26953C4.30257 1.04167 4.98617 0.927734 5.68799 0.927734Z" fill="#002756"/>
</g>
<defs>
<clipPath id="clip0_19_37">
<rect width="10.5" height="14" fill="white" transform="matrix(1 0 0 -1 0.109863 14.75)"/>
</clipPath>
</defs>
</svg>
