<svg width="133" height="25" viewBox="0 0 133 25" fill="none" xmlns="http://www.w3.org/2000/svg">
<path d="M11.7297 1.50342C12.0109 0.940918 12.4641 0.659668 13.0891 0.659668C13.7141 0.659668 14.1672 0.940918 14.4484 1.50342L17.4953 7.69092L24.3391 8.72217C24.9641 8.78467 25.3703 9.11279 25.5578 9.70654C25.7453 10.3003 25.6203 10.8159 25.1828 11.2534L20.2141 16.0815L21.3859 22.9253C21.4797 23.519 21.2766 23.9878 20.7766 24.3315C20.2766 24.7065 19.7609 24.7534 19.2297 24.4722L13.0891 21.2847L6.94843 24.4722C6.41718 24.7847 5.90156 24.7534 5.40156 24.3784C4.90156 24.0034 4.69843 23.519 4.79218 22.9253L5.96406 16.0815L0.995308 11.2534C0.557808 10.8159 0.432808 10.3003 0.620308 9.70654C0.807808 9.11279 1.21406 8.78467 1.83906 8.72217L8.68281 7.69092L11.7297 1.50342ZM38.7297 1.50342C39.0109 0.940918 39.4641 0.659668 40.0891 0.659668C40.7141 0.659668 41.1672 0.940918 41.4484 1.50342L44.4953 7.69092L51.3391 8.72217C51.9641 8.78467 52.3703 9.11279 52.5578 9.70654C52.7453 10.3003 52.6203 10.8159 52.1828 11.2534L47.2141 16.0815L48.3859 22.9253C48.4797 23.519 48.2766 23.9878 47.7766 24.3315C47.2766 24.7065 46.7609 24.7534 46.2297 24.4722L40.0891 21.2847L33.9484 24.4722C33.4172 24.7847 32.9016 24.7534 32.4016 24.3784C31.9016 24.0034 31.6984 23.519 31.7922 22.9253L32.9641 16.0815L27.9953 11.2534C27.5578 10.8159 27.4328 10.3003 27.6203 9.70654C27.8078 9.11279 28.2141 8.78467 28.8391 8.72217L35.6828 7.69092L38.7297 1.50342ZM65.7297 1.50342C66.0109 0.940918 66.4641 0.659668 67.0891 0.659668C67.7141 0.659668 68.1672 0.940918 68.4484 1.50342L71.4953 7.69092L78.3391 8.72217C78.9641 8.78467 79.3703 9.11279 79.5578 9.70654C79.7453 10.3003 79.6203 10.8159 79.1828 11.2534L74.2141 16.0815L75.3859 22.9253C75.4797 23.519 75.2766 23.9878 74.7766 24.3315C74.2766 24.7065 73.7609 24.7534 73.2297 24.4722L67.0891 21.2847L60.9484 24.4722C60.4172 24.7847 59.9016 24.7534 59.4016 24.3784C58.9016 24.0034 58.6984 23.519 58.7922 22.9253L59.9641 16.0815L54.9953 11.2534C54.5578 10.8159 54.4328 10.3003 54.6203 9.70654C54.8078 9.11279 55.2141 8.78467 55.8391 8.72217L62.6828 7.69092L65.7297 1.50342ZM92.7297 1.50342C93.0109 0.940918 93.4641 0.659668 94.0891 0.659668C94.7141 0.659668 95.1672 0.940918 95.4484 1.50342L98.4953 7.69092L105.339 8.72217C105.964 8.78467 106.37 9.11279 106.558 9.70654C106.745 10.3003 106.62 10.8159 106.183 11.2534L101.214 16.0815L102.386 22.9253C102.48 23.519 102.277 23.9878 101.777 24.3315C101.277 24.7065 100.761 24.7534 100.23 24.4722L94.0891 21.2847L87.9484 24.4722C87.4172 24.7847 86.9016 24.7534 86.4016 24.3784C85.9016 24.0034 85.6984 23.519 85.7922 22.9253L86.9641 16.0815L81.9953 11.2534C81.5578 10.8159 81.4328 10.3003 81.6203 9.70654C81.8078 9.11279 82.2141 8.78467 82.8391 8.72217L89.6828 7.69092L92.7297 1.50342ZM131.495 8.72217C132.089 8.78467 132.48 9.11279 132.667 9.70654C132.886 10.3003 132.761 10.8159 132.292 11.2534L127.323 16.0815L128.495 22.9253C128.589 23.394 128.48 23.8003 128.167 24.144C127.855 24.4878 127.48 24.6597 127.042 24.6597C126.792 24.6597 126.558 24.5972 126.339 24.4722L120.198 21.2847L114.058 24.4722C113.839 24.5972 113.605 24.6597 113.355 24.6597C112.917 24.6597 112.542 24.4878 112.23 24.144C111.917 23.8003 111.808 23.394 111.902 22.9253L113.073 16.0815L108.105 11.2534C107.636 10.8159 107.495 10.3003 107.683 9.70654C107.902 9.11279 108.308 8.76904 108.902 8.67529L115.792 7.69092L118.839 1.50342C119.12 0.940918 119.573 0.659668 120.198 0.659668C120.823 0.659668 121.277 0.940918 121.558 1.50342L124.605 7.69092L131.495 8.72217ZM125.777 14.4878L129.62 10.6909L124.277 9.94092L123.105 9.75342L122.589 8.67529L120.198 3.84717V18.7065L121.23 19.269L126.011 21.8003L125.12 16.4565L124.933 15.2847L125.777 14.4878Z" fill="#FFC100"/>
</svg>
