<svg width="15" height="15" viewBox="0 0 15 15" fill="none" xmlns="http://www.w3.org/2000/svg">
<g clip-path="url(#clip0_19_31)">
<path d="M12.9243 4.89258C12.9243 4.95638 12.9243 5.02018 12.9243 5.08398C12.9243 5.14779 12.9243 5.21159 12.9243 5.27539C12.9243 6.22331 12.7466 7.18034 12.3911 8.14648C12.0356 9.11263 11.5138 9.98763 10.8257 10.7715C10.1375 11.5553 9.28304 12.1979 8.26221 12.6992C7.25049 13.1914 6.08382 13.4375 4.76221 13.4375C4.36117 13.4375 3.96468 13.4102 3.57275 13.3555C3.18083 13.2917 2.80029 13.2051 2.43115 13.0957C2.06201 12.9863 1.70426 12.8542 1.35791 12.6992C1.01156 12.5352 0.678874 12.3529 0.359863 12.1523C0.478353 12.1615 0.594564 12.1683 0.708496 12.1729C0.822428 12.1774 0.938639 12.1797 1.05713 12.1797C1.72249 12.1797 2.35824 12.0726 2.96436 11.8584C3.57048 11.6442 4.11963 11.3457 4.61182 10.9629C3.98291 10.9447 3.42464 10.7487 2.93701 10.375C2.44938 10.0013 2.11442 9.5319 1.93213 8.9668C2.02327 8.97591 2.11214 8.98503 2.19873 8.99414C2.28532 9.00326 2.37874 9.00781 2.479 9.00781C2.60661 9.00781 2.73421 9.00098 2.86182 8.9873C2.98942 8.97363 3.11247 8.94857 3.23096 8.91211C2.57471 8.77539 2.02783 8.44727 1.59033 7.92773C1.15283 7.4082 0.934082 6.79753 0.934082 6.0957V6.06836C1.12549 6.16862 1.33057 6.25065 1.54932 6.31445C1.76807 6.37826 1.99137 6.41471 2.21924 6.42383C1.83643 6.16862 1.52881 5.83138 1.29639 5.41211C1.06396 4.99284 0.947754 4.53255 0.947754 4.03125C0.947754 3.76693 0.981934 3.514 1.05029 3.27246C1.11865 3.03092 1.21208 2.80534 1.33057 2.5957C1.68604 3.02409 2.08252 3.41602 2.52002 3.77148C2.95752 4.12695 3.42692 4.43457 3.92822 4.69434C4.42952 4.9541 4.96273 5.16146 5.52783 5.31641C6.08382 5.47135 6.65804 5.5625 7.25049 5.58984C7.23226 5.48047 7.21631 5.37109 7.20264 5.26172C7.18896 5.15234 7.18213 5.04297 7.18213 4.93359C7.18213 4.54167 7.25505 4.16797 7.40088 3.8125C7.55583 3.46615 7.76318 3.16309 8.02295 2.90332C8.28271 2.64355 8.58577 2.44075 8.93213 2.29492C9.27848 2.13997 9.65218 2.0625 10.0532 2.0625C10.4634 2.0625 10.8485 2.14453 11.2085 2.30859C11.5685 2.47266 11.8807 2.69141 12.145 2.96484C12.4731 2.91016 12.7899 2.82357 13.0952 2.70508C13.4006 2.58659 13.6899 2.44531 13.9634 2.28125C13.8631 2.60938 13.7036 2.91016 13.4849 3.18359C13.2661 3.45703 13.0063 3.68034 12.7056 3.85352C12.9972 3.82617 13.2821 3.77376 13.5601 3.69629C13.8381 3.61882 14.1047 3.52539 14.3599 3.41602C14.1685 3.69857 13.9497 3.96517 13.7036 4.21582C13.4575 4.46647 13.1978 4.69206 12.9243 4.89258Z" fill="#002756"/>
</g>
<defs>
<clipPath id="clip0_19_31">
<rect width="14" height="14" fill="white" transform="matrix(1 0 0 -1 0.359863 14.75)"/>
</clipPath>
</defs>
</svg>
