<svg xmlns="http://www.w3.org/2000/svg" xmlns:xlink="http://www.w3.org/1999/xlink" width="1000" viewBox="0 0 750 749.999995" height="1000" preserveAspectRatio="xMidYMid meet"><path fill="#3c86cb" d="M 439.40625 111.894531 C 440.5 112.203125 441.546875 112.332031 442.636719 112.332031 C 447.441406 112.332031 451.847656 109.234375 453.332031 104.386719 L 466.296875 61.125 C 468.089844 55.230469 464.726562 49.035156 458.789062 47.242188 C 452.898438 45.496094 446.652344 48.816406 444.863281 54.753906 L 431.898438 97.96875 C 430.152344 103.863281 433.515625 110.105469 439.40625 111.894531 " fill-opacity="1" fill-rule="nonzero"></path><path fill="#3c86cb" d="M 513.097656 129.75 C 514.753906 130.667969 516.589844 131.105469 518.378906 131.105469 C 522.351562 131.105469 526.191406 129.007812 528.242188 125.296875 L 549.851562 85.441406 C 552.820312 79.984375 550.8125 73.21875 545.355469 70.25 C 539.941406 67.324219 533.175781 69.332031 530.207031 74.746094 L 508.597656 114.601562 C 505.632812 120.015625 507.640625 126.824219 513.097656 129.75 " fill-opacity="1" fill-rule="nonzero"></path><path fill="#3c86cb" d="M 596.738281 166.203125 C 599.925781 166.203125 603.109375 164.847656 605.292969 162.230469 L 634.671875 127.347656 C 638.6875 122.632812 638.078125 115.5625 633.363281 111.589844 C 628.605469 107.617188 621.578125 108.230469 617.605469 112.941406 L 588.226562 147.824219 C 584.253906 152.539062 584.863281 159.609375 589.578125 163.582031 C 591.671875 165.328125 594.207031 166.203125 596.738281 166.203125 " fill-opacity="1" fill-rule="nonzero"></path><path fill="#3c86cb" d="M 664.925781 221.730469 C 667.457031 221.730469 669.988281 220.855469 672.085938 219.109375 L 706.703125 190.035156 C 711.417969 186.0625 712.027344 179.035156 708.054688 174.277344 C 704.082031 169.5625 697.054688 168.996094 692.339844 172.925781 L 657.722656 202 C 653.007812 205.96875 652.398438 213.042969 656.371094 217.757812 C 658.550781 220.375 661.738281 221.730469 664.925781 221.730469 " fill-opacity="1" fill-rule="nonzero"></path><path fill="#3c86cb" d="M 142.472656 162.230469 C 144.652344 164.847656 147.839844 166.203125 151.027344 166.203125 C 153.558594 166.203125 156.089844 165.328125 158.1875 163.582031 C 162.902344 159.609375 163.511719 152.539062 159.539062 147.824219 L 130.160156 112.941406 C 126.1875 108.230469 119.117188 107.617188 114.402344 111.589844 C 109.6875 115.5625 109.074219 122.632812 113.089844 127.347656 L 142.472656 162.230469 " fill-opacity="1" fill-rule="nonzero"></path><path fill="#3c86cb" d="M 219.519531 125.296875 C 221.574219 129.007812 225.414062 131.105469 229.386719 131.105469 C 231.175781 131.105469 233.011719 130.667969 234.667969 129.75 C 240.125 126.824219 242.132812 120.015625 239.164062 114.601562 L 217.554688 74.746094 C 214.589844 69.332031 207.820312 67.324219 202.410156 70.25 C 196.953125 73.21875 194.945312 79.984375 197.910156 85.441406 L 219.519531 125.296875 " fill-opacity="1" fill-rule="nonzero"></path><path fill="#3c86cb" d="M 76.027344 219.417969 C 78.039062 220.988281 80.4375 221.730469 82.839844 221.730469 C 86.199219 221.730469 89.476562 220.246094 91.699219 217.40625 C 95.457031 212.519531 94.582031 205.492188 89.691406 201.691406 L 56.648438 176.199219 C 51.757812 172.402344 44.730469 173.316406 40.929688 178.207031 C 37.175781 183.097656 38.09375 190.082031 42.9375 193.835938 L 76.027344 219.417969 " fill-opacity="1" fill-rule="nonzero"></path><path fill="#3c86cb" d="M 294.429688 104.386719 C 295.914062 109.234375 300.324219 112.332031 305.125 112.332031 C 306.21875 112.332031 307.265625 112.203125 308.355469 111.894531 C 314.25 110.105469 317.613281 103.863281 315.867188 97.96875 L 302.902344 54.753906 C 301.109375 48.816406 294.910156 45.496094 288.976562 47.242188 C 283.039062 49.035156 279.675781 55.230469 281.464844 61.125 L 294.429688 104.386719 " fill-opacity="1" fill-rule="nonzero"></path><path fill="#3c86cb" d="M 373.882812 106.789062 C 380.039062 106.789062 385.058594 101.769531 385.058594 95.613281 L 385.058594 50.910156 C 385.058594 44.753906 380.039062 39.734375 373.882812 39.734375 C 367.726562 39.734375 362.707031 44.753906 362.707031 50.910156 L 362.707031 95.613281 C 362.707031 101.769531 367.726562 106.789062 373.882812 106.789062 " fill-opacity="1" fill-rule="nonzero"></path><path fill="#3c86cb" d="M 221.964844 453.925781 C 162.203125 427.253906 107.722656 384.605469 64.023438 330.296875 C 85.894531 303.058594 110.429688 278.785156 136.925781 257.960938 C 141.816406 254.121094 142.644531 247.09375 138.847656 242.246094 C 135.007812 237.359375 128.023438 236.527344 123.132812 240.371094 C 92.96875 264.03125 65.289062 292.011719 40.976562 323.445312 C 37.832031 327.460938 37.832031 333.136719 40.976562 337.152344 C 87.773438 397.65625 147.230469 445.109375 212.886719 474.355469 C 214.371094 475.011719 215.898438 475.316406 217.425781 475.316406 C 221.703125 475.316406 225.761719 472.871094 227.640625 468.683594 C 230.128906 463.050781 227.597656 456.457031 221.964844 453.925781 " fill-opacity="1" fill-rule="nonzero"></path><path fill="#3c86cb" d="M 345.15625 390.804688 C 321.890625 379.714844 306.828125 355.964844 306.828125 330.296875 C 306.828125 293.324219 336.90625 263.246094 373.882812 263.246094 C 375.847656 263.246094 377.769531 263.332031 379.730469 263.507812 C 375.933594 270.097656 373.882812 277.652344 373.882812 285.597656 C 373.882812 310.261719 393.917969 330.296875 418.585938 330.296875 C 426.484375 330.296875 434.082031 328.246094 440.671875 324.449219 C 440.847656 326.414062 440.933594 328.332031 440.933594 330.296875 C 440.933594 355.964844 425.875 379.714844 402.605469 390.804688 C 398.722656 392.679688 396.234375 396.566406 396.234375 400.886719 L 396.234375 486.753906 L 351.53125 486.753906 L 351.53125 400.886719 C 351.53125 396.566406 349.042969 392.679688 345.15625 390.804688 Z M 496.8125 520.28125 C 496.8125 526.4375 491.792969 531.457031 485.636719 531.457031 L 262.128906 531.457031 C 255.972656 531.457031 250.953125 526.4375 250.953125 520.28125 C 250.953125 514.125 255.972656 509.105469 262.128906 509.105469 L 485.636719 509.105469 C 491.792969 509.105469 496.8125 514.125 496.8125 520.28125 Z M 373.882812 687.914062 C 324.597656 687.914062 284.476562 647.796875 284.476562 598.511719 L 463.285156 598.511719 C 463.285156 647.796875 423.167969 687.914062 373.882812 687.914062 Z M 706.789062 337.152344 C 709.933594 333.136719 709.933594 327.460938 706.789062 323.445312 C 622.1875 214.175781 500.828125 151.488281 373.882812 151.488281 C 298.316406 151.488281 223.667969 173.667969 157.96875 215.617188 C 152.773438 218.9375 151.246094 225.878906 154.5625 231.070312 C 157.882812 236.265625 164.820312 237.792969 170.015625 234.476562 C 198.742188 216.097656 229.34375 201.953125 260.949219 191.828125 C 220.785156 224.609375 195.074219 274.507812 195.074219 330.296875 C 195.074219 384.996094 219.433594 435.460938 262.128906 469.640625 L 262.128906 486.753906 C 243.617188 486.753906 228.601562 501.773438 228.601562 520.28125 C 228.601562 538.789062 243.617188 553.808594 262.128906 553.808594 L 485.636719 553.808594 C 491.792969 553.808594 496.8125 558.828125 496.8125 564.984375 C 496.8125 571.140625 491.792969 576.160156 485.636719 576.160156 L 262.128906 576.160156 C 255.972656 576.160156 250.953125 581.179688 250.953125 587.335938 C 250.953125 593.488281 255.972656 598.511719 262.128906 598.511719 C 262.128906 660.105469 312.242188 710.265625 373.882812 710.265625 C 435.523438 710.265625 485.636719 660.105469 485.636719 598.511719 C 504.148438 598.511719 519.164062 583.492188 519.164062 564.984375 C 519.164062 556.339844 515.800781 548.570312 510.433594 542.632812 C 515.800781 536.695312 519.164062 528.925781 519.164062 520.28125 C 519.164062 501.773438 504.148438 486.753906 485.636719 486.753906 L 485.636719 469.640625 C 528.332031 435.460938 552.691406 384.996094 552.691406 330.296875 C 552.691406 317.683594 551.292969 304.847656 548.5 292.144531 C 547.191406 286.078125 541.253906 282.234375 535.230469 283.589844 C 529.203125 284.898438 525.363281 290.835938 526.671875 296.902344 C 529.117188 308.035156 530.339844 319.296875 530.339844 330.296875 C 530.339844 379.757812 507.507812 425.332031 467.738281 455.238281 C 464.945312 457.332031 463.285156 460.648438 463.285156 464.1875 L 463.285156 486.753906 L 418.585938 486.753906 L 418.585938 407.609375 C 445.957031 391.761719 463.285156 362.121094 463.285156 330.296875 C 463.285156 319.734375 461.367188 309.214844 457.566406 299.085938 C 456.082031 295.070312 452.460938 292.273438 448.183594 291.882812 C 443.859375 291.445312 439.800781 293.542969 437.574219 297.164062 C 433.46875 303.929688 426.355469 307.945312 418.585938 307.945312 C 406.273438 307.945312 396.234375 297.90625 396.234375 285.597656 C 396.234375 277.824219 400.25 270.710938 407.015625 266.605469 C 410.640625 264.378906 412.691406 260.234375 412.296875 256 C 411.90625 251.71875 409.113281 248.097656 405.09375 246.613281 C 394.96875 242.816406 384.445312 240.894531 373.882812 240.894531 C 324.597656 240.894531 284.476562 281.011719 284.476562 330.296875 C 284.476562 362.121094 301.808594 391.761719 329.179688 407.609375 L 329.179688 486.753906 L 284.476562 486.753906 L 284.476562 464.1875 C 284.476562 460.648438 282.820312 457.332031 280.027344 455.238281 C 240.257812 425.332031 217.425781 379.757812 217.425781 330.296875 C 217.425781 244.039062 287.621094 173.839844 373.882812 173.839844 C 432.160156 173.839844 485.246094 205.96875 512.398438 257.699219 C 515.277344 263.15625 522.046875 265.253906 527.5 262.371094 C 532.957031 259.492188 535.054688 252.769531 532.171875 247.3125 C 520.777344 225.570312 505.324219 206.886719 487.078125 191.914062 C 561.640625 216.011719 630.003906 263.507812 683.742188 330.296875 C 640.042969 384.605469 585.5625 427.253906 525.800781 453.925781 C 520.167969 456.457031 517.636719 463.050781 520.125 468.683594 C 522 472.871094 526.0625 475.316406 530.339844 475.316406 C 531.867188 475.316406 533.394531 475.011719 534.878906 474.355469 C 600.535156 445.109375 659.949219 397.65625 706.789062 337.152344 " fill-opacity="1" fill-rule="nonzero"></path><path fill="#3c86cb" d="M 605.292969 482.347656 C 601.320312 477.632812 594.25 477.0625 589.578125 481.035156 C 584.863281 485.007812 584.253906 492.039062 588.226562 496.796875 L 617.605469 531.675781 C 619.832031 534.292969 622.972656 535.648438 626.160156 535.648438 C 628.691406 535.648438 631.269531 534.773438 633.363281 533.027344 C 638.078125 529.011719 638.6875 521.984375 634.671875 517.269531 L 605.292969 482.347656 " fill-opacity="1" fill-rule="nonzero"></path><path fill="#3c86cb" d="M 672.085938 425.507812 C 667.371094 421.535156 660.34375 422.148438 656.371094 426.859375 C 652.398438 431.621094 653.007812 438.648438 657.722656 442.621094 L 692.339844 471.695312 C 694.4375 473.441406 696.96875 474.3125 699.5 474.3125 C 702.6875 474.3125 705.875 472.960938 708.054688 470.296875 C 712.027344 465.582031 711.417969 458.511719 706.703125 454.539062 L 672.085938 425.507812 " fill-opacity="1" fill-rule="nonzero"></path><path fill="#3c86cb" d="M 142.472656 482.347656 L 113.089844 517.269531 C 109.074219 521.984375 109.6875 529.011719 114.402344 533.027344 C 116.496094 534.773438 119.074219 535.648438 121.605469 535.648438 C 124.792969 535.648438 127.933594 534.292969 130.160156 531.675781 L 159.539062 496.796875 C 163.511719 492.039062 162.902344 485.007812 158.1875 481.035156 C 153.515625 477.0625 146.445312 477.675781 142.472656 482.347656 " fill-opacity="1" fill-rule="nonzero"></path><path fill="#3c86cb" d="M 76.027344 425.203125 L 42.9375 450.738281 C 38.09375 454.496094 37.175781 461.523438 40.929688 466.410156 C 43.15625 469.25 46.476562 470.777344 49.792969 470.777344 C 52.195312 470.777344 54.59375 469.992188 56.648438 468.421875 L 89.691406 442.925781 C 94.582031 439.128906 95.457031 432.101562 91.699219 427.210938 C 87.902344 422.320312 80.875 421.449219 76.027344 425.203125 " fill-opacity="1" fill-rule="nonzero"></path></svg>